<svg xmlns="http://www.w3.org/2000/svg" xmlns:xlink="http://www.w3.org/1999/xlink" width="40" zoomAndPan="magnify" viewBox="0 0 30 30.000001" height="40" preserveAspectRatio="xMidYMid meet" version="1.0"><defs><clipPath id="02420b344c"><path d="M 3.699219 23 L 27.265625 23 L 27.265625 26.230469 L 3.699219 26.230469 Z M 3.699219 23 " clip-rule="nonzero"/></clipPath><clipPath id="9ea84bc157"><path d="M 4 2.8125 L 27 2.8125 L 27 14 L 4 14 Z M 4 2.8125 " clip-rule="nonzero"/></clipPath><clipPath id="2615afe619"><path d="M 2.734375 23 L 26.304688 23 L 26.304688 26 L 2.734375 26 Z M 2.734375 23 " clip-rule="nonzero"/></clipPath><clipPath id="ee2c8e9cfe"><path d="M 2.734375 2.800781 L 26.304688 2.800781 L 26.304688 26.222656 L 2.734375 26.222656 Z M 2.734375 2.800781 " clip-rule="nonzero"/></clipPath></defs><g clip-path="url(#02420b344c)"><path fill="#000000" d="M 4.925781 23.28125 L 26.039062 23.28125 C 26.203125 23.28125 26.359375 23.3125 26.507812 23.375 C 26.660156 23.4375 26.792969 23.527344 26.90625 23.640625 C 27.023438 23.757812 27.109375 23.890625 27.171875 24.039062 C 27.234375 24.191406 27.265625 24.347656 27.265625 24.511719 L 27.265625 25 C 27.265625 25.164062 27.234375 25.320312 27.171875 25.472656 C 27.109375 25.621094 27.023438 25.753906 26.90625 25.871094 C 26.792969 25.984375 26.660156 26.074219 26.507812 26.136719 C 26.359375 26.199219 26.203125 26.230469 26.039062 26.230469 L 4.925781 26.230469 C 4.761719 26.230469 4.605469 26.199219 4.457031 26.136719 C 4.304688 26.074219 4.171875 25.984375 4.058594 25.871094 C 3.941406 25.753906 3.855469 25.621094 3.792969 25.472656 C 3.730469 25.320312 3.699219 25.164062 3.699219 25 L 3.699219 24.511719 C 3.699219 24.347656 3.730469 24.191406 3.792969 24.039062 C 3.855469 23.890625 3.941406 23.757812 4.058594 23.640625 C 4.171875 23.527344 4.304688 23.4375 4.457031 23.375 C 4.605469 23.3125 4.761719 23.28125 4.925781 23.28125 Z M 4.925781 23.28125 " fill-opacity="1" fill-rule="nonzero"/></g><g clip-path="url(#9ea84bc157)"><path fill="#000000" d="M 4.71875 12.859375 C 5.082031 13.429688 5.917969 13.582031 6.460938 13.171875 L 15.339844 6.75 C 15.433594 6.679688 15.53125 6.679688 15.625 6.75 L 24.503906 13.171875 C 25.046875 13.582031 25.878906 13.429688 26.246094 12.859375 L 26.699219 12.175781 C 26.789062 12.042969 26.847656 11.902344 26.882812 11.746094 C 26.914062 11.589844 26.917969 11.433594 26.890625 11.277344 C 26.859375 11.121094 26.804688 10.976562 26.71875 10.839844 C 26.632812 10.707031 26.527344 10.59375 26.398438 10.5 L 16.203125 3.125 C 15.988281 2.96875 15.746094 2.890625 15.480469 2.890625 C 15.21875 2.890625 14.976562 2.96875 14.761719 3.125 L 4.566406 10.5 C 4.4375 10.59375 4.328125 10.707031 4.246094 10.839844 C 4.160156 10.976562 4.105469 11.121094 4.074219 11.277344 C 4.046875 11.433594 4.050781 11.589844 4.082031 11.746094 C 4.113281 11.902344 4.175781 12.042969 4.265625 12.175781 Z M 4.71875 12.859375 " fill-opacity="1" fill-rule="nonzero"/></g><path fill="#000000" d="M 24.566406 22.792969 C 24.632812 22.792969 24.691406 22.769531 24.738281 22.71875 C 24.789062 22.671875 24.8125 22.613281 24.8125 22.546875 L 24.8125 14.027344 C 24.8125 13.910156 24.757812 13.832031 24.648438 13.792969 C 24.492188 13.742188 24.351562 13.664062 24.214844 13.570312 L 15.625 7.355469 C 15.53125 7.289062 15.433594 7.289062 15.339844 7.355469 L 6.75 13.570312 C 6.613281 13.664062 6.46875 13.738281 6.316406 13.792969 C 6.207031 13.832031 6.152344 13.910156 6.152344 14.027344 L 6.152344 22.546875 C 6.152344 22.613281 6.175781 22.671875 6.226562 22.71875 C 6.273438 22.769531 6.332031 22.792969 6.398438 22.792969 L 9.34375 22.792969 L 9.34375 21.074219 L 22.109375 21.074219 L 22.109375 22.792969 Z M 11.308594 15.183594 C 11.308594 15.050781 11.332031 14.925781 11.382812 14.804688 C 11.433594 14.6875 11.503906 14.578125 11.597656 14.488281 C 11.6875 14.394531 11.792969 14.324219 11.914062 14.273438 C 12.035156 14.226562 12.160156 14.199219 12.289062 14.199219 L 18.671875 14.199219 C 18.804688 14.199219 18.929688 14.226562 19.050781 14.273438 C 19.167969 14.324219 19.277344 14.394531 19.367188 14.488281 C 19.460938 14.578125 19.53125 14.6875 19.582031 14.804688 C 19.628906 14.925781 19.65625 15.050781 19.65625 15.183594 L 19.65625 18.128906 L 18.183594 18.128906 L 18.183594 16.65625 C 18.183594 16.523438 18.15625 16.398438 18.109375 16.277344 C 18.058594 16.160156 17.988281 16.050781 17.894531 15.960938 C 17.800781 15.867188 17.695312 15.796875 17.578125 15.746094 C 17.457031 15.699219 17.332031 15.671875 17.199219 15.671875 L 13.761719 15.671875 C 13.632812 15.671875 13.507812 15.699219 13.386719 15.746094 C 13.269531 15.796875 13.160156 15.867188 13.070312 15.960938 C 12.976562 16.050781 12.90625 16.160156 12.855469 16.277344 C 12.808594 16.398438 12.78125 16.523438 12.78125 16.65625 L 12.78125 18.128906 L 11.308594 18.128906 Z M 17.691406 16.65625 L 17.691406 18.128906 L 13.273438 18.128906 L 13.273438 16.65625 C 13.273438 16.519531 13.320312 16.402344 13.417969 16.308594 C 13.511719 16.210938 13.628906 16.164062 13.761719 16.164062 L 17.199219 16.164062 C 17.335938 16.164062 17.453125 16.210938 17.546875 16.308594 C 17.644531 16.402344 17.691406 16.519531 17.691406 16.65625 Z M 9.34375 20.582031 L 9.34375 19.601562 C 9.34375 19.46875 9.371094 19.34375 9.417969 19.226562 C 9.46875 19.105469 9.539062 19 9.632812 18.90625 C 9.722656 18.8125 9.832031 18.742188 9.949219 18.695312 C 10.070312 18.644531 10.195312 18.617188 10.328125 18.617188 L 21.128906 18.617188 C 21.257812 18.617188 21.382812 18.644531 21.503906 18.695312 C 21.625 18.742188 21.730469 18.8125 21.824219 18.90625 C 21.914062 19 21.984375 19.105469 22.035156 19.226562 C 22.085938 19.34375 22.109375 19.46875 22.109375 19.601562 L 22.109375 20.582031 Z M 9.34375 20.582031 " fill-opacity="1" fill-rule="nonzero"/><path fill="#000000" d="M 10.816406 22.054688 L 20.636719 22.054688 L 20.636719 22.792969 L 10.816406 22.792969 Z M 10.816406 22.054688 " fill-opacity="1" fill-rule="nonzero"/><g clip-path="url(#2615afe619)"><path fill="#0b3a60" d="M 3.960938 23.515625 L 25.078125 23.515625 C 25.207031 23.515625 25.332031 23.539062 25.453125 23.589844 C 25.574219 23.640625 25.679688 23.710938 25.769531 23.800781 C 25.863281 23.894531 25.933594 24 25.984375 24.121094 C 26.035156 24.242188 26.058594 24.367188 26.058594 24.496094 L 26.058594 24.988281 C 26.058594 25.117188 26.035156 25.242188 25.984375 25.363281 C 25.933594 25.484375 25.863281 25.589844 25.769531 25.679688 C 25.679688 25.773438 25.574219 25.84375 25.453125 25.894531 C 25.332031 25.945312 25.207031 25.96875 25.078125 25.96875 L 3.960938 25.96875 C 3.832031 25.96875 3.707031 25.945312 3.585938 25.894531 C 3.464844 25.84375 3.359375 25.773438 3.269531 25.679688 C 3.175781 25.589844 3.105469 25.484375 3.054688 25.363281 C 3.003906 25.242188 2.980469 25.117188 2.980469 24.988281 L 2.980469 24.496094 C 2.980469 24.367188 3.003906 24.242188 3.054688 24.121094 C 3.105469 24 3.175781 23.894531 3.269531 23.800781 C 3.359375 23.710938 3.464844 23.640625 3.585938 23.589844 C 3.707031 23.539062 3.832031 23.515625 3.960938 23.515625 Z M 3.960938 23.515625 " fill-opacity="1" fill-rule="nonzero"/></g><path fill="#0b3a60" d="M 25.535156 12.03125 L 25.078125 12.714844 C 25.003906 12.824219 24.910156 12.917969 24.800781 12.992188 C 24.6875 13.0625 24.566406 13.113281 24.433594 13.136719 C 24.304688 13.160156 24.171875 13.15625 24.042969 13.125 C 23.914062 13.097656 23.792969 13.042969 23.683594 12.964844 L 14.808594 6.546875 C 14.617188 6.40625 14.421875 6.40625 14.230469 6.546875 L 5.355469 12.964844 C 5.246094 13.042969 5.125 13.097656 4.996094 13.125 C 4.867188 13.15625 4.734375 13.160156 4.605469 13.136719 C 4.472656 13.113281 4.351562 13.0625 4.238281 12.988281 C 4.128906 12.917969 4.035156 12.824219 3.960938 12.714844 L 3.503906 12.03125 C 3.359375 11.8125 3.308594 11.574219 3.355469 11.3125 C 3.402344 11.054688 3.53125 10.847656 3.746094 10.691406 L 13.945312 3.320312 C 14.117188 3.195312 14.308594 3.132812 14.519531 3.132812 C 14.730469 3.132812 14.921875 3.195312 15.09375 3.320312 L 25.292969 10.691406 C 25.507812 10.847656 25.636719 11.054688 25.683594 11.3125 C 25.730469 11.574219 25.679688 11.8125 25.535156 12.03125 Z M 25.535156 12.03125 " fill-opacity="1" fill-rule="nonzero"/><path fill="#999090" d="M 14.230469 6.546875 L 5.4375 12.90625 L 5.4375 23.515625 L 23.601562 23.515625 L 23.601562 12.90625 L 14.808594 6.546875 C 14.617188 6.40625 14.421875 6.40625 14.230469 6.546875 Z M 14.230469 6.546875 " fill-opacity="1" fill-rule="nonzero"/><path fill="#0b3a60" d="M 8.382812 21.0625 L 8.382812 23.515625 L 9.855469 23.515625 L 9.855469 22.535156 L 19.675781 22.535156 L 19.675781 23.515625 L 21.148438 23.515625 L 21.148438 21.0625 Z M 8.382812 21.0625 " fill-opacity="1" fill-rule="nonzero"/><path fill="#b80d0d" d="M 21.148438 19.589844 L 21.148438 21.0625 L 8.382812 21.0625 L 8.382812 19.589844 C 8.382812 19.457031 8.40625 19.332031 8.457031 19.214844 C 8.507812 19.09375 8.578125 18.988281 8.667969 18.894531 C 8.761719 18.800781 8.867188 18.730469 8.988281 18.683594 C 9.109375 18.632812 9.234375 18.605469 9.363281 18.605469 L 20.167969 18.605469 C 20.296875 18.605469 20.421875 18.632812 20.542969 18.683594 C 20.664062 18.730469 20.769531 18.800781 20.859375 18.894531 C 20.953125 18.988281 21.023438 19.09375 21.074219 19.214844 C 21.125 19.332031 21.148438 19.457031 21.148438 19.589844 Z M 21.148438 19.589844 " fill-opacity="1" fill-rule="nonzero"/><path fill="#0b3a60" d="M 18.691406 15.171875 L 18.691406 18.605469 L 10.347656 18.605469 L 10.347656 15.171875 C 10.347656 15.042969 10.371094 14.917969 10.421875 14.796875 C 10.46875 14.675781 10.542969 14.570312 10.632812 14.476562 C 10.726562 14.386719 10.832031 14.316406 10.953125 14.265625 C 11.074219 14.214844 11.199219 14.191406 11.328125 14.191406 L 17.710938 14.191406 C 17.839844 14.191406 17.964844 14.214844 18.085938 14.265625 C 18.207031 14.316406 18.3125 14.386719 18.40625 14.476562 C 18.496094 14.570312 18.570312 14.675781 18.617188 14.796875 C 18.667969 14.917969 18.691406 15.042969 18.691406 15.171875 Z M 18.691406 15.171875 " fill-opacity="1" fill-rule="nonzero"/><path fill="#ffffff" d="M 16.730469 16.644531 L 16.730469 18.605469 L 12.308594 18.605469 L 12.308594 16.644531 C 12.308594 16.507812 12.359375 16.394531 12.453125 16.296875 C 12.550781 16.203125 12.664062 16.152344 12.800781 16.152344 L 16.238281 16.152344 C 16.375 16.152344 16.488281 16.203125 16.585938 16.296875 C 16.679688 16.394531 16.730469 16.507812 16.730469 16.644531 Z M 16.730469 16.644531 " fill-opacity="1" fill-rule="nonzero"/><g clip-path="url(#ee2c8e9cfe)"><path fill="#1b1818" d="M 25.078125 23.269531 L 23.847656 23.269531 L 23.847656 13.324219 C 24.054688 13.398438 24.265625 13.417969 24.480469 13.375 C 24.820312 13.316406 25.089844 13.140625 25.28125 12.851562 L 25.738281 12.167969 C 25.828125 12.035156 25.886719 11.890625 25.917969 11.738281 C 25.953125 11.582031 25.953125 11.425781 25.925781 11.269531 C 25.898438 11.113281 25.839844 10.96875 25.757812 10.832031 C 25.671875 10.699219 25.566406 10.585938 25.4375 10.492188 L 15.238281 3.121094 C 15.023438 2.964844 14.785156 2.886719 14.519531 2.886719 C 14.253906 2.886719 14.015625 2.964844 13.800781 3.121094 L 3.601562 10.492188 C 3.472656 10.585938 3.367188 10.699219 3.28125 10.832031 C 3.199219 10.96875 3.140625 11.113281 3.113281 11.269531 C 3.085938 11.425781 3.085938 11.582031 3.121094 11.738281 C 3.152344 11.890625 3.214844 12.035156 3.300781 12.167969 L 3.757812 12.851562 C 3.914062 13.085938 4.125 13.246094 4.390625 13.335938 C 4.660156 13.421875 4.925781 13.417969 5.191406 13.320312 L 5.191406 23.269531 L 3.960938 23.269531 C 3.800781 23.269531 3.644531 23.300781 3.492188 23.363281 C 3.34375 23.425781 3.210938 23.515625 3.09375 23.628906 C 2.980469 23.746094 2.890625 23.875 2.828125 24.027344 C 2.765625 24.175781 2.734375 24.332031 2.734375 24.496094 L 2.734375 24.988281 C 2.734375 25.148438 2.765625 25.304688 2.828125 25.457031 C 2.890625 25.605469 2.980469 25.738281 3.09375 25.855469 C 3.210938 25.96875 3.34375 26.058594 3.492188 26.121094 C 3.644531 26.183594 3.800781 26.214844 3.960938 26.214844 L 25.078125 26.214844 C 25.238281 26.214844 25.394531 26.183594 25.546875 26.121094 C 25.695312 26.058594 25.828125 25.96875 25.945312 25.855469 C 26.058594 25.738281 26.148438 25.605469 26.210938 25.457031 C 26.273438 25.304688 26.304688 25.148438 26.304688 24.988281 L 26.304688 24.496094 C 26.304688 24.332031 26.273438 24.175781 26.210938 24.027344 C 26.148438 23.875 26.058594 23.746094 25.945312 23.628906 C 25.828125 23.515625 25.695312 23.425781 25.546875 23.363281 C 25.394531 23.300781 25.238281 23.269531 25.078125 23.269531 Z M 4.648438 12.894531 C 4.441406 12.859375 4.28125 12.753906 4.164062 12.578125 L 3.710938 11.894531 C 3.601562 11.730469 3.5625 11.550781 3.597656 11.355469 C 3.632812 11.160156 3.730469 11.007812 3.890625 10.890625 L 14.085938 3.515625 C 14.214844 3.425781 14.359375 3.378906 14.519531 3.378906 C 14.679688 3.378906 14.824219 3.425781 14.953125 3.515625 L 25.148438 10.890625 C 25.308594 11.007812 25.40625 11.160156 25.441406 11.355469 C 25.476562 11.550781 25.441406 11.730469 25.328125 11.894531 L 24.875 12.578125 C 24.757812 12.75 24.597656 12.855469 24.390625 12.894531 C 24.1875 12.929688 24 12.886719 23.828125 12.765625 L 14.949219 6.347656 C 14.824219 6.253906 14.679688 6.207031 14.519531 6.207031 C 14.359375 6.207031 14.214844 6.253906 14.089844 6.347656 L 5.210938 12.765625 C 5.039062 12.886719 4.851562 12.929688 4.648438 12.894531 Z M 20.167969 18.363281 L 18.9375 18.363281 L 18.9375 15.171875 C 18.9375 15.007812 18.90625 14.851562 18.84375 14.703125 C 18.78125 14.550781 18.695312 14.417969 18.578125 14.304688 C 18.464844 14.191406 18.332031 14.101562 18.179688 14.039062 C 18.03125 13.976562 17.875 13.945312 17.710938 13.945312 L 11.328125 13.945312 C 11.164062 13.945312 11.007812 13.976562 10.859375 14.039062 C 10.707031 14.101562 10.574219 14.191406 10.460938 14.304688 C 10.34375 14.417969 10.257812 14.550781 10.195312 14.703125 C 10.132812 14.851562 10.101562 15.007812 10.101562 15.171875 L 10.101562 18.363281 L 9.363281 18.363281 C 9.203125 18.363281 9.042969 18.394531 8.894531 18.457031 C 8.742188 18.519531 8.613281 18.605469 8.496094 18.722656 C 8.382812 18.835938 8.292969 18.96875 8.230469 19.121094 C 8.167969 19.269531 8.136719 19.425781 8.136719 19.589844 L 8.136719 23.269531 L 5.679688 23.269531 L 5.679688 13.03125 L 14.375 6.746094 C 14.472656 6.675781 14.566406 6.675781 14.664062 6.746094 L 23.359375 13.03125 L 23.359375 23.269531 L 21.394531 23.269531 L 21.394531 19.589844 C 21.394531 19.425781 21.363281 19.269531 21.300781 19.121094 C 21.238281 18.96875 21.148438 18.835938 21.035156 18.722656 C 20.917969 18.605469 20.785156 18.519531 20.636719 18.457031 C 20.484375 18.394531 20.328125 18.363281 20.167969 18.363281 Z M 19.675781 22.289062 L 9.855469 22.289062 C 9.789062 22.289062 9.730469 22.3125 9.679688 22.359375 C 9.632812 22.40625 9.609375 22.464844 9.609375 22.535156 L 9.609375 23.269531 L 8.628906 23.269531 L 8.628906 21.304688 L 20.902344 21.304688 L 20.902344 23.269531 L 19.921875 23.269531 L 19.921875 22.535156 C 19.921875 22.464844 19.898438 22.40625 19.847656 22.359375 C 19.800781 22.3125 19.742188 22.289062 19.675781 22.289062 Z M 19.429688 22.777344 L 19.429688 23.269531 L 10.101562 23.269531 L 10.101562 22.777344 Z M 8.628906 20.816406 L 8.628906 19.589844 C 8.628906 19.386719 8.699219 19.210938 8.84375 19.070312 C 8.988281 18.925781 9.160156 18.851562 9.363281 18.851562 L 20.167969 18.851562 C 20.371094 18.851562 20.542969 18.925781 20.6875 19.070312 C 20.832031 19.210938 20.902344 19.386719 20.902344 19.589844 L 20.902344 20.816406 Z M 16.238281 15.90625 L 12.800781 15.90625 C 12.597656 15.90625 12.425781 15.980469 12.28125 16.125 C 12.136719 16.265625 12.066406 16.441406 12.066406 16.644531 L 12.066406 18.363281 L 10.589844 18.363281 L 10.589844 15.171875 C 10.589844 14.96875 10.664062 14.796875 10.808594 14.652344 C 10.949219 14.507812 11.125 14.4375 11.328125 14.433594 L 17.710938 14.433594 C 17.914062 14.4375 18.089844 14.507812 18.230469 14.652344 C 18.375 14.796875 18.449219 14.96875 18.449219 15.171875 L 18.449219 18.363281 L 16.972656 18.363281 L 16.972656 16.644531 C 16.972656 16.441406 16.902344 16.265625 16.757812 16.125 C 16.613281 15.980469 16.441406 15.90625 16.238281 15.90625 Z M 16.484375 16.644531 L 16.484375 18.363281 L 12.554688 18.363281 L 12.554688 16.644531 C 12.554688 16.578125 12.578125 16.519531 12.628906 16.46875 C 12.675781 16.421875 12.734375 16.398438 12.800781 16.398438 L 16.238281 16.398438 C 16.304688 16.398438 16.363281 16.421875 16.410156 16.46875 C 16.460938 16.519531 16.484375 16.578125 16.484375 16.644531 Z M 25.8125 24.988281 C 25.8125 25.191406 25.742188 25.363281 25.597656 25.507812 C 25.453125 25.652344 25.28125 25.722656 25.078125 25.722656 L 3.960938 25.722656 C 3.757812 25.722656 3.585938 25.652344 3.441406 25.507812 C 3.296875 25.363281 3.226562 25.191406 3.226562 24.988281 L 3.226562 24.496094 C 3.226562 24.292969 3.296875 24.121094 3.441406 23.976562 C 3.585938 23.832031 3.757812 23.761719 3.960938 23.761719 L 25.078125 23.761719 C 25.28125 23.761719 25.453125 23.832031 25.597656 23.976562 C 25.742188 24.121094 25.8125 24.292969 25.8125 24.496094 Z M 25.8125 24.988281 " fill-opacity="1" fill-rule="nonzero"/></g></svg>